<?xml version="1.0" encoding="UTF-8" standalone="no"?>
<!-- Created with Inkscape (http://www.inkscape.org/) -->

<svg
   width="352"
   height="128"
   viewBox="0 0 93.133329 33.866666"
   version="1.1"
   id="svg1"
   inkscape:version="1.3.2 (091e20ef0f, 2023-11-25, custom)"
   sodipodi:docname="logo_full.svg"
   xmlns:inkscape="http://www.inkscape.org/namespaces/inkscape"
   xmlns:sodipodi="http://sodipodi.sourceforge.net/DTD/sodipodi-0.dtd"
   xmlns="http://www.w3.org/2000/svg"
   xmlns:svg="http://www.w3.org/2000/svg">
  <sodipodi:namedview
     id="namedview1"
     pagecolor="#ffffff"
     bordercolor="#000000"
     borderopacity="0.25"
     inkscape:showpageshadow="2"
     inkscape:pageopacity="0.0"
     inkscape:pagecheckerboard="0"
     inkscape:deskcolor="#d1d1d1"
     inkscape:document-units="px"
     inkscape:zoom="2.1524106"
     inkscape:cx="183.05058"
     inkscape:cy="68.295519"
     inkscape:window-width="1892"
     inkscape:window-height="1020"
     inkscape:window-x="0"
     inkscape:window-y="0"
     inkscape:window-maximized="0"
     inkscape:current-layer="layer1" />
  <defs
     id="defs1" />
  <g
     inkscape:label="Layer 1"
     inkscape:groupmode="layer"
     id="layer1">
    <g
       id="path1"
       style="fill:#575757;fill-opacity:1"
       transform="matrix(0.86000537,0,0,0.86000537,2.3703517,2.3705726)">
      <path
         style="color:#000000;display:inline;fill:#575757;fill-opacity:1;-inkscape-stroke:none"
         d="M 16.933594,0 C 7.5961141,0 0,7.596115 0,16.933594 c 0,9.337478 7.5961141,16.933593 16.933594,16.933593 9.337479,0 16.933593,-7.596115 16.933593,-16.933593 C 33.867187,7.596115 26.271073,0 16.933594,0 Z m 0,2.4550781 c 8.011181,0 14.478515,6.4673352 14.478515,14.4785159 0,8.01118 -6.467334,14.478515 -14.478515,14.478515 -8.0111819,0 -14.4785159,-6.467335 -14.4785159,-14.478515 0,-8.0111807 6.467334,-14.4785159 14.4785159,-14.4785159 z"
         id="path36" />
    </g>
    <circle
       style="fill:#575757;fill-opacity:1;stroke:none;stroke-width:3.50873;stroke-dasharray:none;stroke-opacity:1"
       id="path2"
       r="2.143827"
       cy="6.9948936"
       cx="16.933107" />
    <circle
       style="fill:#575757;fill-opacity:1;stroke:none;stroke-width:3.50873;stroke-dasharray:none;stroke-opacity:1"
       id="circle25"
       r="2.143827"
       cy="-3.7402978"
       cx="23.131168"
       transform="rotate(30)" />
    <circle
       style="fill:#575757;fill-opacity:1;stroke:none;stroke-width:3.50873;stroke-dasharray:none;stroke-opacity:1"
       id="circle26"
       r="2.143827"
       cy="-16.136274"
       cx="23.131248"
       transform="rotate(60)" />
    <circle
       style="fill:#575757;fill-opacity:1;stroke:none;stroke-width:3.50873;stroke-dasharray:none;stroke-opacity:1"
       id="circle27"
       r="2.143827"
       cy="-26.871546"
       cx="16.933329"
       transform="rotate(90)" />
    <circle
       style="fill:#575757;fill-opacity:1;stroke:none;stroke-width:3.50873;stroke-dasharray:none;stroke-opacity:1"
       id="circle28"
       r="2.143827"
       cy="-33.069607"
       cx="6.1981382"
       transform="rotate(120)" />
    <circle
       style="fill:#575757;fill-opacity:1;stroke:none;stroke-width:3.50873;stroke-dasharray:none;stroke-opacity:1"
       id="circle29"
       r="2.143827"
       cy="-33.069687"
       cx="-6.1978397"
       transform="rotate(150)" />
    <circle
       style="fill:#575757;fill-opacity:1;stroke:none;stroke-width:3.50873;stroke-dasharray:none;stroke-opacity:1"
       id="circle30"
       r="2.143827"
       cy="-26.871769"
       cx="-16.933111"
       transform="scale(-1)" />
    <circle
       style="fill:#575757;fill-opacity:1;stroke:none;stroke-width:3.50873;stroke-dasharray:none;stroke-opacity:1"
       id="circle31"
       r="2.143827"
       cy="-16.136578"
       cx="-23.13117"
       transform="rotate(-150)" />
    <circle
       style="fill:#575757;fill-opacity:1;stroke:none;stroke-width:3.50873;stroke-dasharray:none;stroke-opacity:1"
       id="circle32"
       r="2.143827"
       cy="-3.7405987"
       cx="-23.13125"
       transform="rotate(-120)" />
    <circle
       style="fill:#575757;fill-opacity:1;stroke:none;stroke-width:3.50873;stroke-dasharray:none;stroke-opacity:1"
       id="circle33"
       r="2.143827"
       cy="6.9946733"
       cx="-16.933332"
       transform="rotate(-90)" />
    <circle
       style="fill:#575757;fill-opacity:1;stroke:none;stroke-width:3.50873;stroke-dasharray:none;stroke-opacity:1"
       id="circle34"
       r="2.143827"
       cy="13.192732"
       cx="-6.1981416"
       transform="rotate(-60)" />
    <circle
       style="fill:#575757;fill-opacity:1;stroke:none;stroke-width:3.50873;stroke-dasharray:none;stroke-opacity:1"
       id="circle35"
       r="2.143827"
       cy="13.192812"
       cx="6.1978364"
       transform="rotate(-30)" />
    <path
       style="font-size:18.9626px;font-family:Century;-inkscape-font-specification:'Century, Normal';fill:#575757;stroke-width:2.84439"
       d="m 37.267739,8.8532396 h 7.073939 q 2.055516,0 3.185124,0.9351673 1.138867,0.9351671 1.138867,2.4536571 0,0.90739 -0.453695,1.620339 -0.444436,0.70369 -1.296272,1.129608 -0.842576,0.416659 -2.657356,0.601841 1.324049,0.361104 1.824039,0.712949 0.49999,0.342586 0.796281,0.898131 0.30555,0.546286 0.694431,2.240698 0.277773,1.21294 0.592582,1.657376 0.240736,0.342586 0.518508,0.342586 0.287032,0 0.527768,-0.416659 0.249995,-0.425918 0.30555,-1.490712 h 0.629617 q -0.175922,3.148088 -2.324029,3.148088 -0.675913,0 -1.175904,-0.342586 -0.490731,-0.342586 -0.740727,-1.00924 -0.19444,-0.499991 -0.435176,-2.620321 Q 45.332399,17.482704 45.02685,16.964196 44.730559,16.445687 44.091682,16.130878 43.452806,15.81607 42.563934,15.81607 h -1.120349 v 5.379526 q 0,0.342586 0.175922,0.481473 0.222218,0.175922 0.694432,0.175922 h 1.314789 v 0.694431 h -6.360989 v -0.694431 h 1.342567 q 0.444436,0 0.648135,-0.175922 Q 39.4714,21.501146 39.4714,21.195596 V 10.251361 q 0,-0.3518451 -0.212959,-0.5277677 -0.212959,-0.1759225 -0.648135,-0.1759225 h -1.342567 z m 4.175846,6.2961764 h 1.620339 q 1.629599,0 2.546248,-0.6111 0.925908,-0.620358 0.925908,-2.194402 0,-1.083313 -0.351845,-1.712931 -0.342586,-0.629617 -0.90739,-0.8610943 -0.564804,-0.231477 -2.22218,-0.231477 -1.092572,0 -1.351826,0.1574044 -0.259254,0.1481453 -0.259254,0.5185089 z m 12.629388,-1.435158 v 5.74989 q 0,1.055535 0.527767,1.629598 0.537027,0.574064 1.379604,0.574064 1.037017,0 1.759225,-0.833318 0.731468,-0.842576 0.731468,-2.101812 v -3.249937 q 0,-0.444436 -0.324068,-0.685173 -0.314809,-0.249995 -1.222199,-0.277772 v -0.648136 l 3.046238,-0.157404 v 7.120234 q 0,0.490732 0.277773,0.759245 0.277772,0.259254 0.777763,0.259254 h 0.546285 v 0.620359 l -2.916611,0.07407 -0.185181,-1.71293 q -0.777763,0.916649 -1.564785,1.379603 -0.787022,0.462955 -1.592562,0.462955 -1.175904,0 -1.972185,-0.787022 -0.80554,-0.777763 -0.80554,-2.638839 v -3.768446 q 0,-0.499991 -0.398141,-0.759245 -0.277772,-0.185182 -1.138867,-0.2037 V 13.871662 Z M 65.952375,8.6958352 V 21.269669 q 0,0.259254 0.157404,0.398141 0.231478,0.185181 0.564805,0.185181 h 0.916649 v 0.694431 h -4.907314 v -0.694431 h 0.870354 q 0.425918,0 0.629617,-0.2037 0.212959,-0.203699 0.212959,-0.574063 V 10.519874 q 0,-0.462954 -0.249995,-0.6759126 Q 63.804268,9.5476708 63.304278,9.5476708 H 62.526515 V 8.8532396 Z m 3.24068,5.1758268 2.481434,-0.157404 q 0.2037,0.972203 0.268513,1.851816 0.70369,-1.018499 1.407381,-1.435157 0.70369,-0.416659 1.546266,-0.416659 0.898131,0 1.481454,0.472213 0.583322,0.472213 0.898131,1.537008 0.620358,-1.00924 1.379603,-1.509231 0.759245,-0.49999 1.657376,-0.49999 1.185162,0 1.777743,0.70369 0.759245,0.925908 0.759245,2.388843 v 4.305474 q 0,0.388881 0.194441,0.527767 0.259254,0.212959 0.768504,0.212959 h 0.435177 v 0.694431 h -4.361028 v -0.694431 h 0.435177 q 0.555545,0 0.777763,-0.185181 0.222218,-0.185182 0.222218,-0.555545 v -4.305474 q 0,-0.962944 -0.472214,-1.490712 -0.472213,-0.527768 -1.240717,-0.527768 -0.583322,0 -1.055535,0.314809 -0.472213,0.30555 -0.740727,0.879613 -0.39814,0.824058 -0.39814,1.398121 v 3.731411 q 0,0.379622 0.2037,0.564804 0.203699,0.175922 0.629617,0.175922 h 0.592581 v 0.694431 h -4.416582 v -0.694431 h 0.499991 q 0.472213,0 0.70369,-0.185181 0.231477,-0.185182 0.231477,-0.472214 v -3.999923 q 0,-1.268494 -0.453695,-1.842558 -0.444436,-0.574063 -1.203681,-0.574063 -0.981463,0 -1.50923,0.666654 -0.749986,0.944427 -0.749986,2.203662 v 3.462897 q 0,0.39814 0.175923,0.546286 0.249995,0.19444 0.777763,0.19444 h 0.444436 v 0.694431 h -4.370287 v -0.694431 h 0.657394 q 0.370364,0 0.564805,-0.185181 0.203699,-0.185182 0.203699,-0.472214 V 15.51052 q 0,-0.472213 -0.240736,-0.70369 -0.240736,-0.231478 -0.962944,-0.296291 z m 25.490253,7.722075 0.333327,0.518509 q -0.675913,0.694431 -1.499972,0.694431 -0.629617,0 -1.064794,-0.342586 -0.425918,-0.342586 -0.749986,-1.203681 -0.879613,0.925908 -1.546267,1.240717 -0.666653,0.30555 -1.601821,0.30555 -1.333308,0 -2.027739,-0.574063 -0.694431,-0.574063 -0.694431,-1.472194 0,-1.351827 1.583303,-2.240698 1.592562,-0.898131 4.231401,-1.194422 v -1.31479 q 0,-0.70369 -0.564804,-1.20368 -0.564804,-0.499991 -1.435158,-0.499991 -0.80554,0 -1.388862,0.333327 -0.416659,0.249995 -0.416659,0.490731 0,0.138887 0.222218,0.435177 0.268513,0.370364 0.268513,0.657395 0,0.416659 -0.268513,0.685172 -0.268514,0.259255 -0.70369,0.259255 -0.462955,0 -0.777763,-0.314809 -0.30555,-0.314809 -0.30555,-0.80554 0,-0.91665 1.027758,-1.675894 1.037017,-0.759245 2.712911,-0.759245 1.546267,0 2.361066,0.666654 0.814799,0.675913 0.814799,1.638857 v 4.740651 q 0,0.629617 0.2037,0.925908 0.2037,0.30555 0.527768,0.30555 0.361104,0 0.759245,-0.296291 z m -3.036979,-3.657338 q -2.351807,0.324068 -3.33327,1.055536 -0.731467,0.555545 -0.731467,1.574044 0,0.712949 0.379622,1.120349 0.379622,0.39814 0.990722,0.39814 1.092571,0 1.888853,-0.824058 0.80554,-0.833317 0.80554,-2.083294 z"
       id="text1"
       transform="scale(0.93019225,1.0750466)"
       aria-label="Rulma" />
  </g>
</svg>
